frame:0    pts:0       pts_time:0
lavfi.scd.mafd=0.000
lavfi.scd.score=0.000
lavfi.scd.time=0
frame:1    pts:512     pts_time:0.0416667
lavfi.scd.mafd=1.403
lavfi.scd.score=1.403
lavfi.scd.time=0.0416667
frame:2    pts:1024    pts_time:0.0833333
lavfi.scd.mafd=1.280
lavfi.scd.score=0.124
lavfi.scd.time=0.0833333
frame:3    pts:1536    pts_time:0.125
lavfi.scd.mafd=1.243
lavfi.scd.score=0.037
lavfi.scd.time=0.125
frame:4    pts:2048    pts_time:0.166667
lavfi.scd.mafd=1.201
lavfi.scd.score=0.042
lavfi.scd.time=0.166667
frame:5    pts:2560    pts_time:0.208333
lavfi.scd.mafd=1.182
lavfi.scd.score=0.019
lavfi.scd.time=0.208333
frame:6    pts:3072    pts_time:0.25
lavfi.scd.mafd=1.153
lavfi.scd.score=0.029
lavfi.scd.time=0.25
frame:7    pts:3584    pts_time:0.291667
lavfi.scd.mafd=1.122
lavfi.scd.score=0.032
lavfi.scd.time=0.291667
frame:8    pts:4096    pts_time:0.333333
lavfi.scd.mafd=1.133
lavfi.scd.score=0.011
lavfi.scd.time=0.333333
frame:9    pts:4608    pts_time:0.375
lavfi.scd.mafd=1.145
lavfi.scd.score=0.012
lavfi.scd.time=0.375
frame:10   pts:5120    pts_time:0.416667
lavfi.scd.mafd=1.133
lavfi.scd.score=0.012
lavfi.scd.time=0.416667
frame:11   pts:5632    pts_time:0.458333
lavfi.scd.mafd=1.141
lavfi.scd.score=0.008
lavfi.scd.time=0.458333
frame:12   pts:6144    pts_time:0.5
lavfi.scd.mafd=1.188
lavfi.scd.score=0.046
lavfi.scd.time=0.5
frame:13   pts:6656    pts_time:0.541667
lavfi.scd.mafd=1.216
lavfi.scd.score=0.029
lavfi.scd.time=0.541667
frame:14   pts:7168    pts_time:0.583333
lavfi.scd.mafd=1.462
lavfi.scd.score=0.246
lavfi.scd.time=0.583333
frame:15   pts:7680    pts_time:0.625
lavfi.scd.mafd=1.144
lavfi.scd.score=0.318
lavfi.scd.time=0.625
frame:16   pts:8192    pts_time:0.666667
lavfi.scd.mafd=1.133
lavfi.scd.score=0.011
lavfi.scd.time=0.666667
frame:17   pts:8704    pts_time:0.708333
lavfi.scd.mafd=1.110
lavfi.scd.score=0.023
lavfi.scd.time=0.708333
frame:18   pts:9216    pts_time:0.75
lavfi.scd.mafd=1.104
lavfi.scd.score=0.006
lavfi.scd.time=0.75
frame:19   pts:9728    pts_time:0.791667
lavfi.scd.mafd=1.111
lavfi.scd.score=0.007
lavfi.scd.time=0.791667
frame:20   pts:10240   pts_time:0.833333
lavfi.scd.mafd=1.095
lavfi.scd.score=0.016
lavfi.scd.time=0.833333
frame:21   pts:10752   pts_time:0.875
lavfi.scd.mafd=1.105
lavfi.scd.score=0.010
lavfi.scd.time=0.875
frame:22   pts:11264   pts_time:0.916667
lavfi.scd.mafd=1.110
lavfi.scd.score=0.005
lavfi.scd.time=0.916667
frame:23   pts:11776   pts_time:0.958333
lavfi.scd.mafd=1.114
lavfi.scd.score=0.004
lavfi.scd.time=0.958333
frame:24   pts:12288   pts_time:1
lavfi.scd.mafd=1.091
lavfi.scd.score=0.023
lavfi.scd.time=1
frame:25   pts:12800   pts_time:1.041667
lavfi.scd.mafd=1.075
lavfi.scd.score=0.016
lavfi.scd.time=1.041667
frame:26   pts:13312   pts_time:1.083333
lavfi.scd.mafd=1.080
lavfi.scd.score=0.005
lavfi.scd.time=1.083333
frame:27   pts:13824   pts_time:1.125
lavfi.scd.mafd=1.100
lavfi.scd.score=0.020
lavfi.scd.time=1.125
frame:28   pts:14336   pts_time:1.166667
lavfi.scd.mafd=1.094
lavfi.scd.score=0.005
lavfi.scd.time=1.166667
frame:29   pts:14848   pts_time:1.208333
lavfi.scd.mafd=1.113
lavfi.scd.score=0.018
lavfi.scd.time=1.208333
frame:30   pts:15360   pts_time:1.25
lavfi.scd.mafd=1.117
lavfi.scd.score=0.004
lavfi.scd.time=1.25
frame:31   pts:15872   pts_time:1.291667
lavfi.scd.mafd=1.135
lavfi.scd.score=0.018
lavfi.scd.time=1.291667
frame:32   pts:16384   pts_time:1.333333
lavfi.scd.mafd=1.133
lavfi.scd.score=0.001
lavfi.scd.time=1.333333
frame:33   pts:16896   pts_time:1.375
lavfi.scd.mafd=1.126
lavfi.scd.score=0.007
lavfi.scd.time=1.375
frame:34   pts:17408   pts_time:1.416667
lavfi.scd.mafd=1.131
lavfi.scd.score=0.005
lavfi.scd.time=1.416667
frame:35   pts:17920   pts_time:1.458333
lavfi.scd.mafd=1.152
lavfi.scd.score=0.021
lavfi.scd.time=1.458333
frame:36   pts:18432   pts_time:1.5
lavfi.scd.mafd=1.136
lavfi.scd.score=0.017
lavfi.scd.time=1.5
frame:37   pts:18944   pts_time:1.541667
lavfi.scd.mafd=1.152
lavfi.scd.score=0.016
lavfi.scd.time=1.541667
frame:38   pts:19456   pts_time:1.583333
lavfi.scd.mafd=1.160
lavfi.scd.score=0.009
lavfi.scd.time=1.583333
frame:39   pts:19968   pts_time:1.625
lavfi.scd.mafd=1.158
lavfi.scd.score=0.002
lavfi.scd.time=1.625
frame:40   pts:20480   pts_time:1.666667
lavfi.scd.mafd=1.160
lavfi.scd.score=0.002
lavfi.scd.time=1.666667
frame:41   pts:20992   pts_time:1.708333
lavfi.scd.mafd=1.127
lavfi.scd.score=0.034
lavfi.scd.time=1.708333
frame:42   pts:21504   pts_time:1.75
lavfi.scd.mafd=1.128
lavfi.scd.score=0.001
lavfi.scd.time=1.75
frame:43   pts:22016   pts_time:1.791667
lavfi.scd.mafd=1.147
lavfi.scd.score=0.019
lavfi.scd.time=1.791667
frame:44   pts:22528   pts_time:1.833333
lavfi.scd.mafd=1.152
lavfi.scd.score=0.005
lavfi.scd.time=1.833333
frame:45   pts:23040   pts_time:1.875
lavfi.scd.mafd=1.180
lavfi.scd.score=0.028
lavfi.scd.time=1.875
frame:46   pts:23552   pts_time:1.916667
lavfi.scd.mafd=1.181
lavfi.scd.score=0.001
lavfi.scd.time=1.916667
frame:47   pts:24064   pts_time:1.958333
lavfi.scd.mafd=1.179
lavfi.scd.score=0.002
lavfi.scd.time=1.958333
frame:48   pts:24576   pts_time:2
lavfi.scd.mafd=1.183
lavfi.scd.score=0.004
lavfi.scd.time=2
frame:49   pts:25088   pts_time:2.041667
lavfi.scd.mafd=1.160
lavfi.scd.score=0.023
lavfi.scd.time=2.041667
frame:50   pts:25600   pts_time:2.083333
lavfi.scd.mafd=1.163
lavfi.scd.score=0.004
lavfi.scd.time=2.083333
frame:51   pts:26112   pts_time:2.125
lavfi.scd.mafd=1.182
lavfi.scd.score=0.018
lavfi.scd.time=2.125
frame:52   pts:26624   pts_time:2.166667
lavfi.scd.mafd=1.186
lavfi.scd.score=0.005
lavfi.scd.time=2.166667
frame:53   pts:27136   pts_time:2.208333
lavfi.scd.mafd=1.194
lavfi.scd.score=0.008
lavfi.scd.time=2.208333
frame:54   pts:27648   pts_time:2.25
lavfi.scd.mafd=1.196
lavfi.scd.score=0.002
lavfi.scd.time=2.25
frame:55   pts:28160   pts_time:2.291667
lavfi.scd.mafd=1.187
lavfi.scd.score=0.009
lavfi.scd.time=2.291667
frame:56   pts:28672   pts_time:2.333333
lavfi.scd.mafd=1.193
lavfi.scd.score=0.007
lavfi.scd.time=2.333333
frame:57   pts:29184   pts_time:2.375
lavfi.scd.mafd=1.163
lavfi.scd.score=0.030
lavfi.scd.time=2.375
frame:58   pts:29696   pts_time:2.416667
lavfi.scd.mafd=1.176
lavfi.scd.score=0.013
lavfi.scd.time=2.416667
frame:59   pts:30208   pts_time:2.458333
lavfi.scd.mafd=1.200
lavfi.scd.score=0.024
lavfi.scd.time=2.458333
frame:60   pts:30720   pts_time:2.5
lavfi.scd.mafd=1.206
lavfi.scd.score=0.006
lavfi.scd.time=2.5
frame:61   pts:31232   pts_time:2.541667
lavfi.scd.mafd=1.233
lavfi.scd.score=0.027
lavfi.scd.time=2.541667
frame:62   pts:31744   pts_time:2.583333
lavfi.scd.mafd=1.233
lavfi.scd.score=0.001
lavfi.scd.time=2.583333
frame:63   pts:32256   pts_time:2.625
lavfi.scd.mafd=1.237
lavfi.scd.score=0.003
lavfi.scd.time=2.625
frame:64   pts:32768   pts_time:2.666667
lavfi.scd.mafd=1.279
lavfi.scd.score=0.042
lavfi.scd.time=2.666667
frame:65   pts:33280   pts_time:2.708333
lavfi.scd.mafd=1.232
lavfi.scd.score=0.047
lavfi.scd.time=2.708333
frame:66   pts:33792   pts_time:2.75
lavfi.scd.mafd=1.213
lavfi.scd.score=0.019
lavfi.scd.time=2.75
frame:67   pts:34304   pts_time:2.791667
lavfi.scd.mafd=1.234
lavfi.scd.score=0.021
lavfi.scd.time=2.791667
frame:68   pts:34816   pts_time:2.833333
lavfi.scd.mafd=1.239
lavfi.scd.score=0.005
lavfi.scd.time=2.833333
frame:69   pts:35328   pts_time:2.875
lavfi.scd.mafd=1.244
lavfi.scd.score=0.006
lavfi.scd.time=2.875
frame:70   pts:35840   pts_time:2.916667
lavfi.scd.mafd=1.261
lavfi.scd.score=0.016
lavfi.scd.time=2.916667
frame:71   pts:36352   pts_time:2.958333
lavfi.scd.mafd=1.260
lavfi.scd.score=0.001
lavfi.scd.time=2.958333
frame:72   pts:36864   pts_time:3
lavfi.scd.mafd=1.346
lavfi.scd.score=0.086
lavfi.scd.time=3
frame:73   pts:37376   pts_time:3.041667
lavfi.scd.mafd=1.246
lavfi.scd.score=0.100
lavfi.scd.time=3.041667
frame:74   pts:37888   pts_time:3.083333
lavfi.scd.mafd=1.235
lavfi.scd.score=0.011
lavfi.scd.time=3.083333
frame:75   pts:38400   pts_time:3.125
lavfi.scd.mafd=1.244
lavfi.scd.score=0.008
lavfi.scd.time=3.125
frame:76   pts:38912   pts_time:3.166667
lavfi.scd.mafd=1.247
lavfi.scd.score=0.003
lavfi.scd.time=3.166667
frame:77   pts:39424   pts_time:3.208333
lavfi.scd.mafd=1.246
lavfi.scd.score=0.001
lavfi.scd.time=3.208333
frame:78   pts:39936   pts_time:3.25
lavfi.scd.mafd=1.257
lavfi.scd.score=0.011
lavfi.scd.time=3.25
frame:79   pts:40448   pts_time:3.291667
lavfi.scd.mafd=1.251
lavfi.scd.score=0.006
lavfi.scd.time=3.291667
frame:80   pts:40960   pts_time:3.333333
lavfi.scd.mafd=1.239
lavfi.scd.score=0.012
lavfi.scd.time=3.333333
frame:81   pts:41472   pts_time:3.375
lavfi.scd.mafd=1.204
lavfi.scd.score=0.035
lavfi.scd.time=3.375
frame:82   pts:41984   pts_time:3.416667
lavfi.scd.mafd=1.222
lavfi.scd.score=0.017
lavfi.scd.time=3.416667
frame:83   pts:42496   pts_time:3.458333
lavfi.scd.mafd=1.421
lavfi.scd.score=0.199
lavfi.scd.time=3.458333
frame:84   pts:43008   pts_time:3.5
lavfi.scd.mafd=1.290
lavfi.scd.score=0.131
lavfi.scd.time=3.5
frame:85   pts:43520   pts_time:3.541667
lavfi.scd.mafd=1.248
lavfi.scd.score=0.043
lavfi.scd.time=3.541667
frame:86   pts:44032   pts_time:3.583333
lavfi.scd.mafd=1.206
lavfi.scd.score=0.041
lavfi.scd.time=3.583333
frame:87   pts:44544   pts_time:3.625
lavfi.scd.mafd=1.187
lavfi.scd.score=0.019
lavfi.scd.time=3.625
frame:88   pts:45056   pts_time:3.666667
lavfi.scd.mafd=1.156
lavfi.scd.score=0.031
lavfi.scd.time=3.666667
frame:89   pts:45568   pts_time:3.708333
lavfi.scd.mafd=1.125
lavfi.scd.score=0.031
lavfi.scd.time=3.708333
frame:90   pts:46080   pts_time:3.75
lavfi.scd.mafd=1.134
lavfi.scd.score=0.009
lavfi.scd.time=3.75
frame:91   pts:46592   pts_time:3.791667
lavfi.scd.mafd=1.147
lavfi.scd.score=0.013
lavfi.scd.time=3.791667
frame:92   pts:47104   pts_time:3.833333
lavfi.scd.mafd=1.131
lavfi.scd.score=0.016
lavfi.scd.time=3.833333
frame:93   pts:47616   pts_time:3.875
lavfi.scd.mafd=1.143
lavfi.scd.score=0.012
lavfi.scd.time=3.875
frame:94   pts:48128   pts_time:3.916667
lavfi.scd.mafd=1.187
lavfi.scd.score=0.045
lavfi.scd.time=3.916667
frame:95   pts:48640   pts_time:3.958333
lavfi.scd.mafd=1.218
lavfi.scd.score=0.031
lavfi.scd.time=3.958333
frame:96   pts:49152   pts_time:4
lavfi.scd.mafd=1.462
lavfi.scd.score=0.243
lavfi.scd.time=4
frame:97   pts:49664   pts_time:4.041667
lavfi.scd.mafd=1.145
lavfi.scd.score=0.317
lavfi.scd.time=4.041667
frame:98   pts:50176   pts_time:4.083333
lavfi.scd.mafd=1.132
lavfi.scd.score=0.013
lavfi.scd.time=4.083333
frame:99   pts:50688   pts_time:4.125
lavfi.scd.mafd=1.109
lavfi.scd.score=0.023
lavfi.scd.time=4.125
frame:100  pts:51200   pts_time:4.166667
lavfi.scd.mafd=1.105
lavfi.scd.score=0.003
lavfi.scd.time=4.166667
frame:101  pts:51712   pts_time:4.208333
lavfi.scd.mafd=1.113
lavfi.scd.score=0.008
lavfi.scd.time=4.208333
frame:102  pts:52224   pts_time:4.25
lavfi.scd.mafd=1.094
lavfi.scd.score=0.019
lavfi.scd.time=4.25
frame:103  pts:52736   pts_time:4.291667
lavfi.scd.mafd=1.107
lavfi.scd.score=0.013
lavfi.scd.time=4.291667
frame:104  pts:53248   pts_time:4.333333
lavfi.scd.mafd=1.108
lavfi.scd.score=0.000
lavfi.scd.time=4.333333
frame:105  pts:53760   pts_time:4.375
lavfi.scd.mafd=1.115
lavfi.scd.score=0.007
lavfi.scd.time=4.375
frame:106  pts:54272   pts_time:4.416667
lavfi.scd.mafd=1.090
lavfi.scd.score=0.025
lavfi.scd.time=4.416667
frame:107  pts:54784   pts_time:4.458333
lavfi.scd.mafd=1.076
lavfi.scd.score=0.015
lavfi.scd.time=4.458333
frame:108  pts:55296   pts_time:4.5
lavfi.scd.mafd=1.078
lavfi.scd.score=0.002
lavfi.scd.time=4.5
frame:109  pts:55808   pts_time:4.541667
lavfi.scd.mafd=1.097
lavfi.scd.score=0.019
lavfi.scd.time=4.541667
frame:110  pts:56320   pts_time:4.583333
lavfi.scd.mafd=1.095
lavfi.scd.score=0.002
lavfi.scd.time=4.583333
frame:111  pts:56832   pts_time:4.625
lavfi.scd.mafd=1.112
lavfi.scd.score=0.017
lavfi.scd.time=4.625
frame:112  pts:57344   pts_time:4.666667
lavfi.scd.mafd=1.115
lavfi.scd.score=0.003
lavfi.scd.time=4.666667
frame:113  pts:57856   pts_time:4.708333
lavfi.scd.mafd=1.136
lavfi.scd.score=0.021
lavfi.scd.time=4.708333
frame:114  pts:58368   pts_time:4.75
lavfi.scd.mafd=1.133
lavfi.scd.score=0.004
lavfi.scd.time=4.75
frame:115  pts:58880   pts_time:4.791667
lavfi.scd.mafd=1.125
lavfi.scd.score=0.007
lavfi.scd.time=4.791667
frame:116  pts:59392   pts_time:4.833333
lavfi.scd.mafd=1.130
lavfi.scd.score=0.005
lavfi.scd.time=4.833333
frame:117  pts:59904   pts_time:4.875
lavfi.scd.mafd=1.150
lavfi.scd.score=0.020
lavfi.scd.time=4.875
frame:118  pts:60416   pts_time:4.916667
lavfi.scd.mafd=1.138
lavfi.scd.score=0.012
lavfi.scd.time=4.916667
frame:119  pts:60928   pts_time:4.958333
lavfi.scd.mafd=1.151
lavfi.scd.score=0.013
lavfi.scd.time=4.958333
frame:120  pts:61440   pts_time:5
lavfi.scd.mafd=1.161
lavfi.scd.score=0.010
lavfi.scd.time=5
frame:121  pts:61952   pts_time:5.041667
lavfi.scd.mafd=1.161
lavfi.scd.score=0.001
lavfi.scd.time=5.041667
frame:122  pts:62464   pts_time:5.083333
lavfi.scd.mafd=1.161
lavfi.scd.score=0.000
lavfi.scd.time=5.083333
frame:123  pts:62976   pts_time:5.125
lavfi.scd.mafd=1.127
lavfi.scd.score=0.034
lavfi.scd.time=5.125
frame:124  pts:63488   pts_time:5.166667
lavfi.scd.mafd=1.127
lavfi.scd.score=0.000
lavfi.scd.time=5.166667
frame:125  pts:64000   pts_time:5.208333
lavfi.scd.mafd=1.147
lavfi.scd.score=0.020
lavfi.scd.time=5.208333
frame:126  pts:64512   pts_time:5.25
lavfi.scd.mafd=1.150
lavfi.scd.score=0.003
lavfi.scd.time=5.25
frame:127  pts:65024   pts_time:5.291667
lavfi.scd.mafd=1.181
lavfi.scd.score=0.031
lavfi.scd.time=5.291667
frame:128  pts:65536   pts_time:5.333333
lavfi.scd.mafd=1.178
lavfi.scd.score=0.003
lavfi.scd.time=5.333333
frame:129  pts:66048   pts_time:5.375
lavfi.scd.mafd=1.179
lavfi.scd.score=0.001
lavfi.scd.time=5.375
frame:130  pts:66560   pts_time:5.416667
lavfi.scd.mafd=1.183
lavfi.scd.score=0.004
lavfi.scd.time=5.416667
frame:131  pts:67072   pts_time:5.458333
lavfi.scd.mafd=1.159
lavfi.scd.score=0.024
lavfi.scd.time=5.458333
frame:132  pts:67584   pts_time:5.5
lavfi.scd.mafd=1.164
lavfi.scd.score=0.006
lavfi.scd.time=5.5
frame:133  pts:68096   pts_time:5.541667
lavfi.scd.mafd=1.182
lavfi.scd.score=0.017
lavfi.scd.time=5.541667
frame:134  pts:68608   pts_time:5.583333
lavfi.scd.mafd=1.186
lavfi.scd.score=0.005
lavfi.scd.time=5.583333
frame:135  pts:69120   pts_time:5.625
lavfi.scd.mafd=1.195
lavfi.scd.score=0.009
lavfi.scd.time=5.625
frame:136  pts:69632   pts_time:5.666667
lavfi.scd.mafd=1.196
lavfi.scd.score=0.000
lavfi.scd.time=5.666667
frame:137  pts:70144   pts_time:5.708333
lavfi.scd.mafd=1.187
lavfi.scd.score=0.008
lavfi.scd.time=5.708333
frame:138  pts:70656   pts_time:5.75
lavfi.scd.mafd=1.190
lavfi.scd.score=0.002
lavfi.scd.time=5.75
frame:139  pts:71168   pts_time:5.791667
lavfi.scd.mafd=1.161
lavfi.scd.score=0.028
lavfi.scd.time=5.791667
frame:140  pts:71680   pts_time:5.833333
lavfi.scd.mafd=1.176
lavfi.scd.score=0.015
lavfi.scd.time=5.833333
frame:141  pts:72192   pts_time:5.875
lavfi.scd.mafd=1.200
lavfi.scd.score=0.024
lavfi.scd.time=5.875
frame:142  pts:72704   pts_time:5.916667
lavfi.scd.mafd=1.206
lavfi.scd.score=0.006
lavfi.scd.time=5.916667
frame:143  pts:73216   pts_time:5.958333
lavfi.scd.mafd=1.231
lavfi.scd.score=0.025
lavfi.scd.time=5.958333
frame:144  pts:73728   pts_time:6
lavfi.scd.mafd=1.234
lavfi.scd.score=0.003
lavfi.scd.time=6
frame:145  pts:74240   pts_time:6.041667
lavfi.scd.mafd=1.236
lavfi.scd.score=0.002
lavfi.scd.time=6.041667
frame:146  pts:74752   pts_time:6.083333
lavfi.scd.mafd=1.278
lavfi.scd.score=0.042
lavfi.scd.time=6.083333
frame:147  pts:75264   pts_time:6.125
lavfi.scd.mafd=1.231
lavfi.scd.score=0.047
lavfi.scd.time=6.125
frame:148  pts:75776   pts_time:6.166667
lavfi.scd.mafd=1.215
lavfi.scd.score=0.017
lavfi.scd.time=6.166667
frame:149  pts:76288   pts_time:6.208333
lavfi.scd.mafd=1.234
lavfi.scd.score=0.019
lavfi.scd.time=6.208333
frame:150  pts:76800   pts_time:6.25
lavfi.scd.mafd=1.238
lavfi.scd.score=0.004
lavfi.scd.time=6.25
frame:151  pts:77312   pts_time:6.291667
lavfi.scd.mafd=1.243
lavfi.scd.score=0.005
lavfi.scd.time=6.291667
frame:152  pts:77824   pts_time:6.333333
lavfi.scd.mafd=1.259
lavfi.scd.score=0.016
lavfi.scd.time=6.333333
frame:153  pts:78336   pts_time:6.375
lavfi.scd.mafd=1.258
lavfi.scd.score=0.001
lavfi.scd.time=6.375
frame:154  pts:78848   pts_time:6.416667
lavfi.scd.mafd=1.348
lavfi.scd.score=0.090
lavfi.scd.time=6.416667
frame:155  pts:79360   pts_time:6.458333
lavfi.scd.mafd=1.247
lavfi.scd.score=0.101
lavfi.scd.time=6.458333
frame:156  pts:79872   pts_time:6.5
lavfi.scd.mafd=1.236
lavfi.scd.score=0.012
lavfi.scd.time=6.5
frame:157  pts:80384   pts_time:6.541667
lavfi.scd.mafd=1.244
lavfi.scd.score=0.009
lavfi.scd.time=6.541667
frame:158  pts:80896   pts_time:6.583333
lavfi.scd.mafd=1.247
lavfi.scd.score=0.003
lavfi.scd.time=6.583333
frame:159  pts:81408   pts_time:6.625
lavfi.scd.mafd=1.247
lavfi.scd.score=0.000
lavfi.scd.time=6.625
frame:160  pts:81920   pts_time:6.666667
lavfi.scd.mafd=1.256
lavfi.scd.score=0.009
lavfi.scd.time=6.666667
frame:161  pts:82432   pts_time:6.708333
lavfi.scd.mafd=1.242
lavfi.scd.score=0.015
lavfi.scd.time=6.708333
frame:162  pts:82944   pts_time:6.75
lavfi.scd.mafd=1.245
lavfi.scd.score=0.003
lavfi.scd.time=6.75
frame:163  pts:83456   pts_time:6.791667
lavfi.scd.mafd=1.213
lavfi.scd.score=0.031
lavfi.scd.time=6.791667
